<?xml version="1.0" encoding="UTF-8" ?>
<svg width="800" height="801" xmlns="http://www.w3.org/2000/svg">
<line x1="678.108" y1="677.436" x2="678.108" y2="122.559" stroke="black" stroke-width="1.0" stroke-linecap="round" fill="none"/>
<line x1="678.108" y1="122.559" x2="123.226" y2="121.591" stroke="black" stroke-width="1.0" stroke-linecap="round" fill="none"/>
<line x1="123.226" y1="121.591" x2="121.289" y2="676.476" stroke="black" stroke-width="1.0" stroke-linecap="round" fill="none"/>
<line x1="121.289" y1="676.476" x2="676.175" y2="679.381" stroke="black" stroke-width="1.0" stroke-linecap="round" fill="none"/>
<line x1="676.175" y1="679.381" x2="680.049" y2="124.495" stroke="black" stroke-width="1.0" stroke-linecap="round" fill="none"/>
<line x1="680.049" y1="124.495" x2="125.165" y2="119.653" stroke="black" stroke-width="1.0" stroke-linecap="round" fill="none"/>
<line x1="125.165" y1="119.653" x2="119.354" y2="674.533" stroke="black" stroke-width="1.0" stroke-linecap="round" fill="none"/>
<line x1="119.354" y1="674.533" x2="674.229" y2="681.312" stroke="black" stroke-width="1.0" stroke-linecap="round" fill="none"/>
<line x1="674.229" y1="681.312" x2="681.977" y2="126.445" stroke="black" stroke-width="1.0" stroke-linecap="round" fill="none"/>
<line x1="681.977" y1="126.445" x2="127.118" y2="117.728" stroke="black" stroke-width="1.0" stroke-linecap="round" fill="none"/>
<line x1="127.118" y1="117.728" x2="117.433" y2="672.577" stroke="black" stroke-width="1.0" stroke-linecap="round" fill="none"/>
<line x1="117.433" y1="672.577" x2="672.269" y2="683.230" stroke="black" stroke-width="1.0" stroke-linecap="round" fill="none"/>
<line x1="672.269" y1="683.230" x2="683.891" y2="128.408" stroke="black" stroke-width="1.0" stroke-linecap="round" fill="none"/>
<line x1="683.891" y1="128.408" x2="129.085" y2="115.817" stroke="black" stroke-width="1.0" stroke-linecap="round" fill="none"/>
<line x1="129.085" y1="115.817" x2="115.526" y2="670.607" stroke="black" stroke-width="1.0" stroke-linecap="round" fill="none"/>
<line x1="115.526" y1="670.607" x2="670.296" y2="685.134" stroke="black" stroke-width="1.0" stroke-linecap="round" fill="none"/>
<line x1="670.296" y1="685.134" x2="685.792" y2="130.384" stroke="black" stroke-width="1.0" stroke-linecap="round" fill="none"/>
<line x1="685.792" y1="130.384" x2="131.065" y2="113.920" stroke="black" stroke-width="1.0" stroke-linecap="round" fill="none"/>
<line x1="131.065" y1="113.920" x2="113.632" y2="668.624" stroke="black" stroke-width="1.0" stroke-linecap="round" fill="none"/>
<line x1="113.632" y1="668.624" x2="668.310" y2="687.024" stroke="black" stroke-width="1.0" stroke-linecap="round" fill="none"/>
<line x1="668.310" y1="687.024" x2="687.679" y2="132.374" stroke="black" stroke-width="1.0" stroke-linecap="round" fill="none"/>
<line x1="687.679" y1="132.374" x2="133.058" y2="112.037" stroke="black" stroke-width="1.0" stroke-linecap="round" fill="none"/>
<line x1="133.058" y1="112.037" x2="111.752" y2="666.627" stroke="black" stroke-width="1.0" stroke-linecap="round" fill="none"/>
<line x1="111.752" y1="666.627" x2="666.310" y2="688.901" stroke="black" stroke-width="1.0" stroke-linecap="round" fill="none"/>
<line x1="666.310" y1="688.901" x2="689.552" y2="134.377" stroke="black" stroke-width="1.0" stroke-linecap="round" fill="none"/>
<line x1="689.552" y1="134.377" x2="135.064" y2="110.168" stroke="black" stroke-width="1.0" stroke-linecap="round" fill="none"/>
<line x1="135.064" y1="110.168" x2="109.886" y2="664.618" stroke="black" stroke-width="1.0" stroke-linecap="round" fill="none"/>
<line x1="109.886" y1="664.618" x2="664.297" y2="690.763" stroke="black" stroke-width="1.0" stroke-linecap="round" fill="none"/>
<line x1="664.297" y1="690.763" x2="691.411" y2="136.393" stroke="black" stroke-width="1.0" stroke-linecap="round" fill="none"/>
<line x1="691.411" y1="136.393" x2="137.083" y2="108.312" stroke="black" stroke-width="1.0" stroke-linecap="round" fill="none"/>
<line x1="137.083" y1="108.312" x2="108.034" y2="662.595" stroke="black" stroke-width="1.0" stroke-linecap="round" fill="none"/>
<line x1="108.034" y1="662.595" x2="662.272" y2="692.612" stroke="black" stroke-width="1.0" stroke-linecap="round" fill="none"/>
<line x1="662.272" y1="692.612" x2="693.256" y2="138.422" stroke="black" stroke-width="1.0" stroke-linecap="round" fill="none"/>
<line x1="693.256" y1="138.422" x2="139.116" y2="106.471" stroke="black" stroke-width="1.0" stroke-linecap="round" fill="none"/>
<line x1="139.116" y1="106.471" x2="106.197" y2="660.560" stroke="black" stroke-width="1.0" stroke-linecap="round" fill="none"/>
<line x1="106.197" y1="660.560" x2="660.233" y2="694.446" stroke="black" stroke-width="1.0" stroke-linecap="round" fill="none"/>
<line x1="660.233" y1="694.446" x2="695.086" y2="140.464" stroke="black" stroke-width="1.0" stroke-linecap="round" fill="none"/>
<line x1="695.086" y1="140.464" x2="141.161" y2="104.643" stroke="black" stroke-width="1.0" stroke-linecap="round" fill="none"/>
<line x1="141.161" y1="104.643" x2="104.373" y2="658.511" stroke="black" stroke-width="1.0" stroke-linecap="round" fill="none"/>
<line x1="104.373" y1="658.511" x2="658.181" y2="696.266" stroke="black" stroke-width="1.0" stroke-linecap="round" fill="none"/>
<line x1="658.181" y1="696.266" x2="696.903" y2="142.519" stroke="black" stroke-width="1.0" stroke-linecap="round" fill="none"/>
<line x1="696.903" y1="142.519" x2="143.219" y2="102.830" stroke="black" stroke-width="1.0" stroke-linecap="round" fill="none"/>
<line x1="143.219" y1="102.830" x2="102.563" y2="656.450" stroke="black" stroke-width="1.0" stroke-linecap="round" fill="none"/>
<line x1="102.563" y1="656.450" x2="656.117" y2="698.072" stroke="black" stroke-width="1.0" stroke-linecap="round" fill="none"/>
<line x1="656.117" y1="698.072" x2="698.705" y2="144.587" stroke="black" stroke-width="1.0" stroke-linecap="round" fill="none"/>
<line x1="698.705" y1="144.587" x2="145.289" y2="101.032" stroke="black" stroke-width="1.0" stroke-linecap="round" fill="none"/>
<line x1="145.289" y1="101.032" x2="100.768" y2="654.376" stroke="black" stroke-width="1.0" stroke-linecap="round" fill="none"/>
<line x1="100.768" y1="654.376" x2="654.040" y2="699.863" stroke="black" stroke-width="1.0" stroke-linecap="round" fill="none"/>
<line x1="654.040" y1="699.863" x2="700.493" y2="146.667" stroke="black" stroke-width="1.0" stroke-linecap="round" fill="none"/>
<line x1="700.493" y1="146.667" x2="147.373" y2="99.248" stroke="black" stroke-width="1.0" stroke-linecap="round" fill="none"/>
<line x1="147.373" y1="99.248" x2="98.988" y2="652.290" stroke="black" stroke-width="1.0" stroke-linecap="round" fill="none"/>
<line x1="98.988" y1="652.290" x2="651.950" y2="701.640" stroke="black" stroke-width="1.0" stroke-linecap="round" fill="none"/>
<line x1="651.950" y1="701.640" x2="702.266" y2="148.759" stroke="black" stroke-width="1.0" stroke-linecap="round" fill="none"/>
<line x1="702.266" y1="148.759" x2="149.468" y2="97.478" stroke="black" stroke-width="1.0" stroke-linecap="round" fill="none"/>
<line x1="149.468" y1="97.478" x2="97.222" y2="650.191" stroke="black" stroke-width="1.0" stroke-linecap="round" fill="none"/>
<line x1="97.222" y1="650.191" x2="649.848" y2="703.403" stroke="black" stroke-width="1.0" stroke-linecap="round" fill="none"/>
<line x1="649.848" y1="703.403" x2="704.025" y2="150.864" stroke="black" stroke-width="1.0" stroke-linecap="round" fill="none"/>
<line x1="704.025" y1="150.864" x2="151.577" y2="95.723" stroke="black" stroke-width="1.0" stroke-linecap="round" fill="none"/>
<line x1="151.577" y1="95.723" x2="95.470" y2="648.080" stroke="black" stroke-width="1.0" stroke-linecap="round" fill="none"/>
<line x1="95.470" y1="648.080" x2="647.734" y2="705.151" stroke="black" stroke-width="1.0" stroke-linecap="round" fill="none"/>
<line x1="647.734" y1="705.151" x2="705.769" y2="152.982" stroke="black" stroke-width="1.0" stroke-linecap="round" fill="none"/>
<line x1="705.769" y1="152.982" x2="153.697" y2="93.982" stroke="black" stroke-width="1.0" stroke-linecap="round" fill="none"/>
<line x1="153.697" y1="93.982" x2="93.734" y2="645.956" stroke="black" stroke-width="1.0" stroke-linecap="round" fill="none"/>
<line x1="93.734" y1="645.956" x2="645.607" y2="706.884" stroke="black" stroke-width="1.0" stroke-linecap="round" fill="none"/>
<line x1="645.607" y1="706.884" x2="707.499" y2="155.111" stroke="black" stroke-width="1.0" stroke-linecap="round" fill="none"/>
<line x1="707.499" y1="155.111" x2="155.830" y2="92.257" stroke="black" stroke-width="1.0" stroke-linecap="round" fill="none"/>
<line x1="155.830" y1="92.257" x2="92.012" y2="643.820" stroke="black" stroke-width="1.0" stroke-linecap="round" fill="none"/>
<line x1="92.012" y1="643.820" x2="643.469" y2="708.602" stroke="black" stroke-width="1.0" stroke-linecap="round" fill="none"/>
<line x1="643.469" y1="708.602" x2="709.213" y2="157.253" stroke="black" stroke-width="1.0" stroke-linecap="round" fill="none"/>
<line x1="709.213" y1="157.253" x2="157.974" y2="90.546" stroke="black" stroke-width="1.0" stroke-linecap="round" fill="none"/>
<line x1="157.974" y1="90.546" x2="90.305" y2="641.673" stroke="black" stroke-width="1.0" stroke-linecap="round" fill="none"/>
<line x1="90.305" y1="641.673" x2="641.318" y2="710.305" stroke="black" stroke-width="1.0" stroke-linecap="round" fill="none"/>
<line x1="641.318" y1="710.305" x2="710.913" y2="159.407" stroke="black" stroke-width="1.0" stroke-linecap="round" fill="none"/>
<line x1="710.913" y1="159.407" x2="160.131" y2="88.850" stroke="black" stroke-width="1.0" stroke-linecap="round" fill="none"/>
<line x1="160.131" y1="88.850" x2="88.612" y2="639.513" stroke="black" stroke-width="1.0" stroke-linecap="round" fill="none"/>
<line x1="88.612" y1="639.513" x2="639.155" y2="711.993" stroke="black" stroke-width="1.0" stroke-linecap="round" fill="none"/>
<line x1="639.155" y1="711.993" x2="712.597" y2="161.572" stroke="black" stroke-width="1.0" stroke-linecap="round" fill="none"/>
<line x1="712.597" y1="161.572" x2="162.300" y2="87.169" stroke="black" stroke-width="1.0" stroke-linecap="round" fill="none"/>
<line x1="162.300" y1="87.169" x2="86.935" y2="637.342" stroke="black" stroke-width="1.0" stroke-linecap="round" fill="none"/>
<line x1="86.935" y1="637.342" x2="636.981" y2="713.667" stroke="black" stroke-width="1.0" stroke-linecap="round" fill="none"/>
<line x1="636.981" y1="713.667" x2="714.267" y2="163.750" stroke="black" stroke-width="1.0" stroke-linecap="round" fill="none"/>
<line x1="714.267" y1="163.750" x2="164.480" y2="85.503" stroke="black" stroke-width="1.0" stroke-linecap="round" fill="none"/>
<line x1="164.480" y1="85.503" x2="85.273" y2="635.158" stroke="black" stroke-width="1.0" stroke-linecap="round" fill="none"/>
<line x1="85.273" y1="635.158" x2="634.795" y2="715.325" stroke="black" stroke-width="1.0" stroke-linecap="round" fill="none"/>
<line x1="634.795" y1="715.325" x2="715.921" y2="165.939" stroke="black" stroke-width="1.0" stroke-linecap="round" fill="none"/>
<line x1="715.921" y1="165.939" x2="166.672" y2="83.853" stroke="black" stroke-width="1.0" stroke-linecap="round" fill="none"/>
<line x1="166.672" y1="83.853" x2="83.627" y2="632.963" stroke="black" stroke-width="1.0" stroke-linecap="round" fill="none"/>
<line x1="83.627" y1="632.963" x2="632.597" y2="716.968" stroke="black" stroke-width="1.0" stroke-linecap="round" fill="none"/>
<line x1="632.597" y1="716.968" x2="717.560" y2="168.139" stroke="black" stroke-width="1.0" stroke-linecap="round" fill="none"/>
<line x1="717.560" y1="168.139" x2="168.875" y2="82.218" stroke="black" stroke-width="1.0" stroke-linecap="round" fill="none"/>
<line x1="168.875" y1="82.218" x2="81.995" y2="630.757" stroke="black" stroke-width="1.0" stroke-linecap="round" fill="none"/>
<line x1="81.995" y1="630.757" x2="630.388" y2="718.595" stroke="black" stroke-width="1.0" stroke-linecap="round" fill="none"/>
<line x1="630.388" y1="718.595" x2="719.184" y2="170.352" stroke="black" stroke-width="1.0" stroke-linecap="round" fill="none"/>
<line x1="719.184" y1="170.352" x2="171.090" y2="80.598" stroke="black" stroke-width="1.0" stroke-linecap="round" fill="none"/>
<line x1="171.090" y1="80.598" x2="80.379" y2="628.539" stroke="black" stroke-width="1.0" stroke-linecap="round" fill="none"/>
<line x1="80.379" y1="628.539" x2="628.167" y2="720.207" stroke="black" stroke-width="1.0" stroke-linecap="round" fill="none"/>
<line x1="628.167" y1="720.207" x2="720.792" y2="172.575" stroke="black" stroke-width="1.0" stroke-linecap="round" fill="none"/>
<line x1="720.792" y1="172.575" x2="173.317" y2="78.993" stroke="black" stroke-width="1.0" stroke-linecap="round" fill="none"/>
<line x1="173.317" y1="78.993" x2="78.779" y2="626.310" stroke="black" stroke-width="1.0" stroke-linecap="round" fill="none"/>
<line x1="78.779" y1="626.310" x2="625.935" y2="721.804" stroke="black" stroke-width="1.0" stroke-linecap="round" fill="none"/>
<line x1="625.935" y1="721.804" x2="722.385" y2="174.810" stroke="black" stroke-width="1.0" stroke-linecap="round" fill="none"/>
<line x1="722.385" y1="174.810" x2="175.554" y2="77.405" stroke="black" stroke-width="1.0" stroke-linecap="round" fill="none"/>
<line x1="175.554" y1="77.405" x2="77.194" y2="624.070" stroke="black" stroke-width="1.0" stroke-linecap="round" fill="none"/>
<line x1="77.194" y1="624.070" x2="623.692" y2="723.385" stroke="black" stroke-width="1.0" stroke-linecap="round" fill="none"/>
<line x1="623.692" y1="723.385" x2="723.962" y2="177.056" stroke="black" stroke-width="1.0" stroke-linecap="round" fill="none"/>
<line x1="723.962" y1="177.056" x2="177.803" y2="75.831" stroke="black" stroke-width="1.0" stroke-linecap="round" fill="none"/>
<line x1="177.803" y1="75.831" x2="75.624" y2="621.818" stroke="black" stroke-width="1.0" stroke-linecap="round" fill="none"/>
<line x1="75.624" y1="621.818" x2="621.438" y2="724.951" stroke="black" stroke-width="1.0" stroke-linecap="round" fill="none"/>
<line x1="621.438" y1="724.951" x2="725.524" y2="179.313" stroke="black" stroke-width="1.0" stroke-linecap="round" fill="none"/>
<line x1="725.524" y1="179.313" x2="180.063" y2="74.274" stroke="black" stroke-width="1.0" stroke-linecap="round" fill="none"/>
<line x1="180.063" y1="74.274" x2="74.071" y2="619.556" stroke="black" stroke-width="1.0" stroke-linecap="round" fill="none"/>
<line x1="74.071" y1="619.556" x2="619.172" y2="726.500" stroke="black" stroke-width="1.0" stroke-linecap="round" fill="none"/>
<line x1="619.172" y1="726.500" x2="727.069" y2="181.581" stroke="black" stroke-width="1.0" stroke-linecap="round" fill="none"/>
<line x1="727.069" y1="181.581" x2="182.333" y2="72.732" stroke="black" stroke-width="1.0" stroke-linecap="round" fill="none"/>
<line x1="182.333" y1="72.732" x2="72.533" y2="617.282" stroke="black" stroke-width="1.0" stroke-linecap="round" fill="none"/>
<line x1="72.533" y1="617.282" x2="616.896" y2="728.034" stroke="black" stroke-width="1.0" stroke-linecap="round" fill="none"/>
<line x1="616.896" y1="728.034" x2="728.599" y2="183.860" stroke="black" stroke-width="1.0" stroke-linecap="round" fill="none"/>
<line x1="728.599" y1="183.860" x2="184.615" y2="71.206" stroke="black" stroke-width="1.0" stroke-linecap="round" fill="none"/>
<line x1="184.615" y1="71.206" x2="71.011" y2="614.998" stroke="black" stroke-width="1.0" stroke-linecap="round" fill="none"/>
<line x1="71.011" y1="614.998" x2="614.610" y2="729.553" stroke="black" stroke-width="1.0" stroke-linecap="round" fill="none"/>
<line x1="614.610" y1="729.553" x2="730.114" y2="186.149" stroke="black" stroke-width="1.0" stroke-linecap="round" fill="none"/>
<line x1="730.114" y1="186.149" x2="186.907" y2="69.696" stroke="black" stroke-width="1.0" stroke-linecap="round" fill="none"/>
<line x1="186.907" y1="69.696" x2="69.505" y2="612.703" stroke="black" stroke-width="1.0" stroke-linecap="round" fill="none"/>
<line x1="69.505" y1="612.703" x2="612.312" y2="731.055" stroke="black" stroke-width="1.0" stroke-linecap="round" fill="none"/>
<line x1="612.312" y1="731.055" x2="731.612" y2="188.449" stroke="black" stroke-width="1.0" stroke-linecap="round" fill="none"/>
<line x1="731.612" y1="188.449" x2="189.210" y2="68.201" stroke="black" stroke-width="1.0" stroke-linecap="round" fill="none"/>
<line x1="189.210" y1="68.201" x2="68.014" y2="610.398" stroke="black" stroke-width="1.0" stroke-linecap="round" fill="none"/>
<line x1="68.014" y1="610.398" x2="610.004" y2="732.541" stroke="black" stroke-width="1.0" stroke-linecap="round" fill="none"/>
<line x1="610.004" y1="732.541" x2="733.094" y2="190.760" stroke="black" stroke-width="1.0" stroke-linecap="round" fill="none"/>
<line x1="733.094" y1="190.760" x2="191.523" y2="66.723" stroke="black" stroke-width="1.0" stroke-linecap="round" fill="none"/>
<line x1="191.523" y1="66.723" x2="66.540" y2="608.082" stroke="black" stroke-width="1.0" stroke-linecap="round" fill="none"/>
<line x1="66.540" y1="608.082" x2="607.686" y2="734.011" stroke="black" stroke-width="1.0" stroke-linecap="round" fill="none"/>
<line x1="607.686" y1="734.011" x2="734.560" y2="193.081" stroke="black" stroke-width="1.0" stroke-linecap="round" fill="none"/>
<line x1="734.560" y1="193.081" x2="193.846" y2="65.261" stroke="black" stroke-width="1.0" stroke-linecap="round" fill="none"/>
<line x1="193.846" y1="65.261" x2="65.082" y2="605.756" stroke="black" stroke-width="1.0" stroke-linecap="round" fill="none"/>
<line x1="65.082" y1="605.756" x2="605.357" y2="735.465" stroke="black" stroke-width="1.0" stroke-linecap="round" fill="none"/>
<line x1="605.357" y1="735.465" x2="736.010" y2="195.412" stroke="black" stroke-width="1.0" stroke-linecap="round" fill="none"/>
<line x1="736.010" y1="195.412" x2="196.180" y2="63.816" stroke="black" stroke-width="1.0" stroke-linecap="round" fill="none"/>
<line x1="196.180" y1="63.816" x2="63.641" y2="603.420" stroke="black" stroke-width="1.0" stroke-linecap="round" fill="none"/>
<line x1="63.641" y1="603.420" x2="603.018" y2="736.902" stroke="black" stroke-width="1.0" stroke-linecap="round" fill="none"/>
<line x1="603.018" y1="736.902" x2="737.443" y2="197.753" stroke="black" stroke-width="1.0" stroke-linecap="round" fill="none"/>
<line x1="737.443" y1="197.753" x2="198.524" y2="62.386" stroke="black" stroke-width="1.0" stroke-linecap="round" fill="none"/>
<line x1="198.524" y1="62.386" x2="62.215" y2="601.074" stroke="black" stroke-width="1.0" stroke-linecap="round" fill="none"/>
<line x1="62.215" y1="601.074" x2="600.669" y2="738.324" stroke="black" stroke-width="1.0" stroke-linecap="round" fill="none"/>
<line x1="600.669" y1="738.324" x2="738.861" y2="200.105" stroke="black" stroke-width="1.0" stroke-linecap="round" fill="none"/>
<line x1="738.861" y1="200.105" x2="200.878" y2="60.973" stroke="black" stroke-width="1.0" stroke-linecap="round" fill="none"/>
<line x1="200.878" y1="60.973" x2="60.806" y2="598.717" stroke="black" stroke-width="1.0" stroke-linecap="round" fill="none"/>
<line x1="60.806" y1="598.717" x2="598.311" y2="739.729" stroke="black" stroke-width="1.0" stroke-linecap="round" fill="none"/>
<line x1="598.311" y1="739.729" x2="740.262" y2="202.466" stroke="black" stroke-width="1.0" stroke-linecap="round" fill="none"/>
<line x1="740.262" y1="202.466" x2="203.242" y2="59.576" stroke="black" stroke-width="1.0" stroke-linecap="round" fill="none"/>
<line x1="203.242" y1="59.576" x2="59.413" y2="596.351" stroke="black" stroke-width="1.0" stroke-linecap="round" fill="none"/>
<line x1="59.413" y1="596.351" x2="595.942" y2="741.117" stroke="black" stroke-width="1.0" stroke-linecap="round" fill="none"/>
<line x1="595.942" y1="741.117" x2="741.646" y2="204.837" stroke="black" stroke-width="1.0" stroke-linecap="round" fill="none"/>
<line x1="741.646" y1="204.837" x2="205.615" y2="58.196" stroke="black" stroke-width="1.0" stroke-linecap="round" fill="none"/>
<line x1="205.615" y1="58.196" x2="58.037" y2="593.975" stroke="black" stroke-width="1.0" stroke-linecap="round" fill="none"/>
<line x1="58.037" y1="593.975" x2="593.563" y2="742.489" stroke="black" stroke-width="1.0" stroke-linecap="round" fill="none"/>
<line x1="593.563" y1="742.489" x2="743.014" y2="207.218" stroke="black" stroke-width="1.0" stroke-linecap="round" fill="none"/>
<line x1="743.014" y1="207.218" x2="207.999" y2="56.832" stroke="black" stroke-width="1.0" stroke-linecap="round" fill="none"/>
<line x1="207.999" y1="56.832" x2="56.678" y2="591.589" stroke="black" stroke-width="1.0" stroke-linecap="round" fill="none"/>
<line x1="56.678" y1="591.589" x2="591.175" y2="743.845" stroke="black" stroke-width="1.0" stroke-linecap="round" fill="none"/>
<line x1="591.175" y1="743.845" x2="744.365" y2="209.608" stroke="black" stroke-width="1.0" stroke-linecap="round" fill="none"/>
<line x1="744.365" y1="209.608" x2="210.392" y2="55.485" stroke="black" stroke-width="1.0" stroke-linecap="round" fill="none"/>
<line x1="210.392" y1="55.485" x2="55.335" y2="589.194" stroke="black" stroke-width="1.0" stroke-linecap="round" fill="none"/>
<line x1="55.335" y1="589.194" x2="588.778" y2="745.184" stroke="black" stroke-width="1.0" stroke-linecap="round" fill="none"/>
<line x1="588.778" y1="745.184" x2="745.700" y2="212.008" stroke="black" stroke-width="1.0" stroke-linecap="round" fill="none"/>
<line x1="745.700" y1="212.008" x2="212.794" y2="54.154" stroke="black" stroke-width="1.0" stroke-linecap="round" fill="none"/>
<line x1="212.794" y1="54.154" x2="54.009" y2="586.789" stroke="black" stroke-width="1.0" stroke-linecap="round" fill="none"/>
<line x1="54.009" y1="586.789" x2="586.371" y2="746.506" stroke="black" stroke-width="1.0" stroke-linecap="round" fill="none"/>
<line x1="586.371" y1="746.506" x2="747.018" y2="214.418" stroke="black" stroke-width="1.0" stroke-linecap="round" fill="none"/>
<line x1="747.018" y1="214.418" x2="215.205" y2="52.841" stroke="black" stroke-width="1.0" stroke-linecap="round" fill="none"/>
<line x1="215.205" y1="52.841" x2="52.699" y2="584.375" stroke="black" stroke-width="1.0" stroke-linecap="round" fill="none"/>
<line x1="52.699" y1="584.375" x2="583.955" y2="747.811" stroke="black" stroke-width="1.0" stroke-linecap="round" fill="none"/>
<line x1="583.955" y1="747.811" x2="748.319" y2="216.836" stroke="black" stroke-width="1.0" stroke-linecap="round" fill="none"/>
<line x1="748.319" y1="216.836" x2="217.626" y2="51.544" stroke="black" stroke-width="1.0" stroke-linecap="round" fill="none"/>
<line x1="217.626" y1="51.544" x2="51.406" y2="581.952" stroke="black" stroke-width="1.0" stroke-linecap="round" fill="none"/>
<line x1="51.406" y1="581.952" x2="581.529" y2="749.099" stroke="black" stroke-width="1.0" stroke-linecap="round" fill="none"/>
<line x1="581.529" y1="749.099" x2="749.603" y2="219.264" stroke="black" stroke-width="1.0" stroke-linecap="round" fill="none"/>
<line x1="749.603" y1="219.264" x2="220.056" y2="50.264" stroke="black" stroke-width="1.0" stroke-linecap="round" fill="none"/>
<line x1="220.056" y1="50.264" x2="50.131" y2="579.520" stroke="black" stroke-width="1.0" stroke-linecap="round" fill="none"/>
<line x1="50.131" y1="579.520" x2="579.095" y2="750.371" stroke="black" stroke-width="1.0" stroke-linecap="round" fill="none"/>
<line x1="579.095" y1="750.371" x2="750.870" y2="221.700" stroke="black" stroke-width="1.0" stroke-linecap="round" fill="none"/>
<line x1="750.870" y1="221.700" x2="222.495" y2="49.001" stroke="black" stroke-width="1.0" stroke-linecap="round" fill="none"/>
<line x1="222.495" y1="49.001" x2="48.872" y2="577.079" stroke="black" stroke-width="1.0" stroke-linecap="round" fill="none"/>
<line x1="48.872" y1="577.079" x2="576.651" y2="751.625" stroke="black" stroke-width="1.0" stroke-linecap="round" fill="none"/>
<line x1="576.651" y1="751.625" x2="752.120" y2="224.146" stroke="black" stroke-width="1.0" stroke-linecap="round" fill="none"/>
<line x1="752.120" y1="224.146" x2="224.943" y2="47.755" stroke="black" stroke-width="1.0" stroke-linecap="round" fill="none"/>
<line x1="224.943" y1="47.755" x2="47.630" y2="574.629" stroke="black" stroke-width="1.0" stroke-linecap="round" fill="none"/>
<line x1="47.630" y1="574.629" x2="574.199" y2="752.863" stroke="black" stroke-width="1.0" stroke-linecap="round" fill="none"/>
<line x1="574.199" y1="752.863" x2="753.354" y2="226.600" stroke="black" stroke-width="1.0" stroke-linecap="round" fill="none"/>
<line x1="753.354" y1="226.600" x2="227.399" y2="46.526" stroke="black" stroke-width="1.0" stroke-linecap="round" fill="none"/>
<line x1="227.399" y1="46.526" x2="46.405" y2="572.170" stroke="black" stroke-width="1.0" stroke-linecap="round" fill="none"/>
<line x1="46.405" y1="572.170" x2="571.738" y2="754.083" stroke="black" stroke-width="1.0" stroke-linecap="round" fill="none"/>
<line x1="571.738" y1="754.083" x2="754.570" y2="229.063" stroke="black" stroke-width="1.0" stroke-linecap="round" fill="none"/>
<line x1="754.570" y1="229.063" x2="229.864" y2="45.314" stroke="black" stroke-width="1.0" stroke-linecap="round" fill="none"/>
<line x1="229.864" y1="45.314" x2="45.198" y2="569.703" stroke="black" stroke-width="1.0" stroke-linecap="round" fill="none"/>
<line x1="45.198" y1="569.703" x2="569.269" y2="755.287" stroke="black" stroke-width="1.0" stroke-linecap="round" fill="none"/>
<line x1="569.269" y1="755.287" x2="755.769" y2="231.535" stroke="black" stroke-width="1.0" stroke-linecap="round" fill="none"/>
<line x1="755.769" y1="231.535" x2="232.338" y2="44.119" stroke="black" stroke-width="1.0" stroke-linecap="round" fill="none"/>
<line x1="232.338" y1="44.119" x2="44.008" y2="567.227" stroke="black" stroke-width="1.0" stroke-linecap="round" fill="none"/>
<line x1="44.008" y1="567.227" x2="566.791" y2="756.473" stroke="black" stroke-width="1.0" stroke-linecap="round" fill="none"/>
<line x1="566.791" y1="756.473" x2="756.950" y2="234.015" stroke="black" stroke-width="1.0" stroke-linecap="round" fill="none"/>
<line x1="756.950" y1="234.015" x2="234.820" y2="42.942" stroke="black" stroke-width="1.0" stroke-linecap="round" fill="none"/>
<line x1="234.820" y1="42.942" x2="42.834" y2="564.743" stroke="black" stroke-width="1.0" stroke-linecap="round" fill="none"/>
<line x1="42.834" y1="564.743" x2="564.305" y2="757.641" stroke="black" stroke-width="1.0" stroke-linecap="round" fill="none"/>
<line x1="564.305" y1="757.641" x2="758.115" y2="236.503" stroke="black" stroke-width="1.0" stroke-linecap="round" fill="none"/>
<line x1="758.115" y1="236.503" x2="237.310" y2="41.782" stroke="black" stroke-width="1.0" stroke-linecap="round" fill="none"/>
<line x1="237.310" y1="41.782" x2="41.679" y2="562.251" stroke="black" stroke-width="1.0" stroke-linecap="round" fill="none"/>
<line x1="41.679" y1="562.251" x2="561.811" y2="758.793" stroke="black" stroke-width="1.0" stroke-linecap="round" fill="none"/>
<line x1="561.811" y1="758.793" x2="759.262" y2="238.999" stroke="black" stroke-width="1.0" stroke-linecap="round" fill="none"/>
<line x1="759.262" y1="238.999" x2="239.809" y2="40.639" stroke="black" stroke-width="1.0" stroke-linecap="round" fill="none"/>
<line x1="239.809" y1="40.639" x2="40.540" y2="559.751" stroke="black" stroke-width="1.0" stroke-linecap="round" fill="none"/>
<line x1="40.540" y1="559.751" x2="559.308" y2="759.927" stroke="black" stroke-width="1.0" stroke-linecap="round" fill="none"/>
<line x1="559.308" y1="759.927" x2="760.392" y2="241.504" stroke="black" stroke-width="1.0" stroke-linecap="round" fill="none"/>
<line x1="760.392" y1="241.504" x2="242.315" y2="39.514" stroke="black" stroke-width="1.0" stroke-linecap="round" fill="none"/>
<line x1="242.315" y1="39.514" x2="39.419" y2="557.242" stroke="black" stroke-width="1.0" stroke-linecap="round" fill="none"/>
<line x1="39.419" y1="557.242" x2="556.798" y2="761.043" stroke="black" stroke-width="1.0" stroke-linecap="round" fill="none"/>
<line x1="556.798" y1="761.043" x2="761.504" y2="244.016" stroke="black" stroke-width="1.0" stroke-linecap="round" fill="none"/>
<line x1="761.504" y1="244.016" x2="244.829" y2="38.406" stroke="black" stroke-width="1.0" stroke-linecap="round" fill="none"/>
<line x1="244.829" y1="38.406" x2="38.316" y2="554.726" stroke="black" stroke-width="1.0" stroke-linecap="round" fill="none"/>
<line x1="38.316" y1="554.726" x2="554.280" y2="762.142" stroke="black" stroke-width="1.0" stroke-linecap="round" fill="none"/>
<line x1="554.280" y1="762.142" x2="762.598" y2="246.536" stroke="black" stroke-width="1.0" stroke-linecap="round" fill="none"/>
<line x1="762.598" y1="246.536" x2="247.351" y2="37.316" stroke="black" stroke-width="1.0" stroke-linecap="round" fill="none"/>
<line x1="247.351" y1="37.316" x2="37.230" y2="552.202" stroke="black" stroke-width="1.0" stroke-linecap="round" fill="none"/>
<line x1="37.230" y1="552.202" x2="551.754" y2="763.224" stroke="black" stroke-width="1.0" stroke-linecap="round" fill="none"/>
<line x1="551.754" y1="763.224" x2="763.675" y2="249.064" stroke="black" stroke-width="1.0" stroke-linecap="round" fill="none"/>
<line x1="763.675" y1="249.064" x2="249.881" y2="36.243" stroke="black" stroke-width="1.0" stroke-linecap="round" fill="none"/>
<line x1="249.881" y1="36.243" x2="36.162" y2="549.671" stroke="black" stroke-width="1.0" stroke-linecap="round" fill="none"/>
<line x1="36.162" y1="549.671" x2="549.221" y2="764.288" stroke="black" stroke-width="1.0" stroke-linecap="round" fill="none"/>
<line x1="549.221" y1="764.288" x2="764.735" y2="251.599" stroke="black" stroke-width="1.0" stroke-linecap="round" fill="none"/>
<line x1="764.735" y1="251.599" x2="252.418" y2="35.188" stroke="black" stroke-width="1.0" stroke-linecap="round" fill="none"/>
<line x1="252.418" y1="35.188" x2="35.111" y2="547.131" stroke="black" stroke-width="1.0" stroke-linecap="round" fill="none"/>
<line x1="35.111" y1="547.131" x2="546.680" y2="765.334" stroke="black" stroke-width="1.0" stroke-linecap="round" fill="none"/>
<line x1="546.680" y1="765.334" x2="765.777" y2="254.142" stroke="black" stroke-width="1.0" stroke-linecap="round" fill="none"/>
<line x1="765.777" y1="254.142" x2="254.963" y2="34.151" stroke="black" stroke-width="1.0" stroke-linecap="round" fill="none"/>
<line x1="254.963" y1="34.151" x2="34.078" y2="544.585" stroke="black" stroke-width="1.0" stroke-linecap="round" fill="none"/>
<line x1="34.078" y1="544.585" x2="544.131" y2="766.362" stroke="black" stroke-width="1.0" stroke-linecap="round" fill="none"/>
<line x1="544.131" y1="766.362" x2="766.801" y2="256.692" stroke="black" stroke-width="1.0" stroke-linecap="round" fill="none"/>
<line x1="766.801" y1="256.692" x2="257.515" y2="33.131" stroke="black" stroke-width="1.0" stroke-linecap="round" fill="none"/>
<line x1="257.515" y1="33.131" x2="33.063" y2="542.031" stroke="black" stroke-width="1.0" stroke-linecap="round" fill="none"/>
<line x1="33.063" y1="542.031" x2="541.576" y2="767.373" stroke="black" stroke-width="1.0" stroke-linecap="round" fill="none"/>
<line x1="541.576" y1="767.373" x2="767.807" y2="259.249" stroke="black" stroke-width="1.0" stroke-linecap="round" fill="none"/>
<line x1="767.807" y1="259.249" x2="260.074" y2="32.129" stroke="black" stroke-width="1.0" stroke-linecap="round" fill="none"/>
<line x1="260.074" y1="32.129" x2="32.066" y2="539.470" stroke="black" stroke-width="1.0" stroke-linecap="round" fill="none"/>
<line x1="32.066" y1="539.470" x2="539.013" y2="768.366" stroke="black" stroke-width="1.0" stroke-linecap="round" fill="none"/>
<line x1="539.013" y1="768.366" x2="768.795" y2="261.814" stroke="black" stroke-width="1.0" stroke-linecap="round" fill="none"/>
<line x1="768.795" y1="261.814" x2="262.640" y2="31.146" stroke="black" stroke-width="1.0" stroke-linecap="round" fill="none"/>
<line x1="262.640" y1="31.146" x2="31.086" y2="536.903" stroke="black" stroke-width="1.0" stroke-linecap="round" fill="none"/>
<line x1="31.086" y1="536.903" x2="536.444" y2="769.341" stroke="black" stroke-width="1.0" stroke-linecap="round" fill="none"/>
<line x1="536.444" y1="769.341" x2="769.766" y2="264.385" stroke="black" stroke-width="1.0" stroke-linecap="round" fill="none"/>
<line x1="769.766" y1="264.385" x2="265.213" y2="30.179" stroke="black" stroke-width="1.0" stroke-linecap="round" fill="none"/>
<line x1="265.213" y1="30.179" x2="30.125" y2="534.328" stroke="black" stroke-width="1.0" stroke-linecap="round" fill="none"/>
<line x1="30.125" y1="534.328" x2="533.867" y2="770.298" stroke="black" stroke-width="1.0" stroke-linecap="round" fill="none"/>
<line x1="533.867" y1="770.298" x2="770.718" y2="266.963" stroke="black" stroke-width="1.0" stroke-linecap="round" fill="none"/>
<line x1="770.718" y1="266.963" x2="267.793" y2="29.231" stroke="black" stroke-width="1.0" stroke-linecap="round" fill="none"/>
<line x1="267.793" y1="29.231" x2="29.181" y2="531.746" stroke="black" stroke-width="1.0" stroke-linecap="round" fill="none"/>
<line x1="29.181" y1="531.746" x2="531.284" y2="771.237" stroke="black" stroke-width="1.0" stroke-linecap="round" fill="none"/>
<line x1="531.284" y1="771.237" x2="771.653" y2="269.548" stroke="black" stroke-width="1.0" stroke-linecap="round" fill="none"/>
<line x1="771.653" y1="269.548" x2="270.379" y2="28.301" stroke="black" stroke-width="1.0" stroke-linecap="round" fill="none"/>
<line x1="270.379" y1="28.301" x2="28.256" y2="529.158" stroke="black" stroke-width="1.0" stroke-linecap="round" fill="none"/>
<line x1="28.256" y1="529.158" x2="528.694" y2="772.158" stroke="black" stroke-width="1.0" stroke-linecap="round" fill="none"/>
<line x1="528.694" y1="772.158" x2="772.570" y2="272.139" stroke="black" stroke-width="1.0" stroke-linecap="round" fill="none"/>
<line x1="772.570" y1="272.139" x2="272.972" y2="27.389" stroke="black" stroke-width="1.0" stroke-linecap="round" fill="none"/>
<line x1="272.972" y1="27.389" x2="27.348" y2="526.564" stroke="black" stroke-width="1.0" stroke-linecap="round" fill="none"/>
<line x1="27.348" y1="526.564" x2="526.098" y2="773.061" stroke="black" stroke-width="1.0" stroke-linecap="round" fill="none"/>
<line x1="526.098" y1="773.061" x2="773.468" y2="274.737" stroke="black" stroke-width="1.0" stroke-linecap="round" fill="none"/>
<line x1="773.468" y1="274.737" x2="275.572" y2="26.495" stroke="black" stroke-width="1.0" stroke-linecap="round" fill="none"/>
<line x1="275.572" y1="26.495" x2="26.459" y2="523.963" stroke="black" stroke-width="1.0" stroke-linecap="round" fill="none"/>
<line x1="26.459" y1="523.963" x2="523.495" y2="773.946" stroke="black" stroke-width="1.0" stroke-linecap="round" fill="none"/>
<line x1="523.495" y1="773.946" x2="774.348" y2="277.341" stroke="black" stroke-width="1.0" stroke-linecap="round" fill="none"/>
<line x1="774.348" y1="277.341" x2="278.177" y2="25.619" stroke="black" stroke-width="1.0" stroke-linecap="round" fill="none"/>
<line x1="278.177" y1="25.619" x2="25.587" y2="521.355" stroke="black" stroke-width="1.0" stroke-linecap="round" fill="none"/>
<line x1="25.587" y1="521.355" x2="520.887" y2="774.813" stroke="black" stroke-width="1.0" stroke-linecap="round" fill="none"/>
<line x1="520.887" y1="774.813" x2="775.211" y2="279.952" stroke="black" stroke-width="1.0" stroke-linecap="round" fill="none"/>
<line x1="775.211" y1="279.952" x2="280.789" y2="24.762" stroke="black" stroke-width="1.0" stroke-linecap="round" fill="none"/>
<line x1="280.789" y1="24.762" x2="24.734" y2="518.742" stroke="black" stroke-width="1.0" stroke-linecap="round" fill="none"/>
<line x1="24.734" y1="518.742" x2="518.272" y2="775.661" stroke="black" stroke-width="1.0" stroke-linecap="round" fill="none"/>
<line x1="518.272" y1="775.661" x2="776.055" y2="282.568" stroke="black" stroke-width="1.0" stroke-linecap="round" fill="none"/>
<line x1="776.055" y1="282.568" x2="283.407" y2="23.922" stroke="black" stroke-width="1.0" stroke-linecap="round" fill="none"/>
<line x1="283.407" y1="23.922" x2="23.899" y2="516.123" stroke="black" stroke-width="1.0" stroke-linecap="round" fill="none"/>
<line x1="23.899" y1="516.123" x2="515.651" y2="776.492" stroke="black" stroke-width="1.0" stroke-linecap="round" fill="none"/>
<line x1="515.651" y1="776.492" x2="776.880" y2="285.190" stroke="black" stroke-width="1.0" stroke-linecap="round" fill="none"/>
<line x1="776.880" y1="285.190" x2="286.031" y2="23.101" stroke="black" stroke-width="1.0" stroke-linecap="round" fill="none"/>
<line x1="286.031" y1="23.101" x2="23.083" y2="513.497" stroke="black" stroke-width="1.0" stroke-linecap="round" fill="none"/>
<line x1="23.083" y1="513.497" x2="513.024" y2="777.304" stroke="black" stroke-width="1.0" stroke-linecap="round" fill="none"/>
<line x1="513.024" y1="777.304" x2="777.688" y2="287.819" stroke="black" stroke-width="1.0" stroke-linecap="round" fill="none"/>
<line x1="777.688" y1="287.819" x2="288.661" y2="22.298" stroke="black" stroke-width="1.0" stroke-linecap="round" fill="none"/>
<line x1="288.661" y1="22.298" x2="22.285" y2="510.866" stroke="black" stroke-width="1.0" stroke-linecap="round" fill="none"/>
<line x1="22.285" y1="510.866" x2="510.392" y2="778.097" stroke="black" stroke-width="1.0" stroke-linecap="round" fill="none"/>
<line x1="510.392" y1="778.097" x2="778.477" y2="290.452" stroke="black" stroke-width="1.0" stroke-linecap="round" fill="none"/>
<line x1="778.477" y1="290.452" x2="291.296" y2="21.514" stroke="black" stroke-width="1.0" stroke-linecap="round" fill="none"/>
<line x1="291.296" y1="21.514" x2="21.505" y2="508.230" stroke="black" stroke-width="1.0" stroke-linecap="round" fill="none"/>
<line x1="21.505" y1="508.230" x2="507.754" y2="778.873" stroke="black" stroke-width="1.0" stroke-linecap="round" fill="none"/>
<line x1="507.754" y1="778.873" x2="779.248" y2="293.092" stroke="black" stroke-width="1.0" stroke-linecap="round" fill="none"/>
<line x1="779.248" y1="293.092" x2="293.936" y2="20.748" stroke="black" stroke-width="1.0" stroke-linecap="round" fill="none"/>
<line x1="293.936" y1="20.748" x2="20.743" y2="505.588" stroke="black" stroke-width="1.0" stroke-linecap="round" fill="none"/>
<line x1="20.743" y1="505.588" x2="505.110" y2="779.630" stroke="black" stroke-width="1.0" stroke-linecap="round" fill="none"/>
<line x1="505.110" y1="779.630" x2="780.000" y2="295.736" stroke="black" stroke-width="1.0" stroke-linecap="round" fill="none"/>
<line x1="780.000" y1="295.736" x2="296.583" y2="20.000" stroke="black" stroke-width="1.0" stroke-linecap="round" fill="none"/>
<line x1="296.583" y1="20.000" x2="20.000" y2="502.940" stroke="black" stroke-width="1.0" stroke-linecap="round" fill="none"/>
<line x1="20.000" y1="502.940" x2="502.462" y2="780.368" stroke="black" stroke-width="1.0" stroke-linecap="round" fill="none"/>
</svg>
